<mxfile host="65bd71144e">
    <diagram id="-blMQUfOScZWxX7mcpmo" name="Page-1">
        <mxGraphModel dx="291" dy="430" grid="1" gridSize="10" guides="1" tooltips="1" connect="1" arrows="1" fold="1" page="1" pageScale="1" pageWidth="850" pageHeight="1100" math="0" shadow="0">
            <root>
                <mxCell id="0"/>
                <mxCell id="1" parent="0"/>
                <mxCell id="2" value="" style="fontStyle=1;align=center;verticalAlign=top;childLayout=stackLayout;horizontal=1;horizontalStack=0;resizeParent=1;resizeParentMax=0;resizeLast=0;marginBottom=0;" vertex="1" parent="1">
                    <mxGeometry x="160" y="120" width="140" height="226" as="geometry"/>
                </mxCell>
                <mxCell id="3" value="Component" style="html=1;align=left;spacingLeft=4;verticalAlign=top;strokeColor=none;fillColor=none;" vertex="1" parent="2">
                    <mxGeometry width="140" height="40" as="geometry"/>
                </mxCell>
                <mxCell id="4" value="" style="shape=module;jettyWidth=10;jettyHeight=4;" vertex="1" parent="3">
                    <mxGeometry x="1" width="16" height="20" relative="1" as="geometry">
                        <mxPoint x="-25" y="9" as="offset"/>
                    </mxGeometry>
                </mxCell>
                <mxCell id="5" value="" style="line;strokeWidth=1;fillColor=none;align=left;verticalAlign=middle;spacingTop=-1;spacingLeft=3;spacingRight=3;rotatable=0;labelPosition=right;points=[];portConstraint=eastwest;" vertex="1" parent="2">
                    <mxGeometry y="40" width="140" height="8" as="geometry"/>
                </mxCell>
                <mxCell id="6" value="provided interfaces" style="html=1;align=center;spacingLeft=4;verticalAlign=top;strokeColor=none;fillColor=none;" vertex="1" parent="2">
                    <mxGeometry y="48" width="140" height="25" as="geometry"/>
                </mxCell>
                <mxCell id="7" value="isCartOpen" style="html=1;align=left;spacingLeft=4;verticalAlign=top;strokeColor=none;fillColor=none;" vertex="1" parent="2">
                    <mxGeometry y="73" width="140" height="25" as="geometry"/>
                </mxCell>
                <mxCell id="8" value="" style="line;strokeWidth=1;fillColor=none;align=left;verticalAlign=middle;spacingTop=-1;spacingLeft=3;spacingRight=3;rotatable=0;labelPosition=right;points=[];portConstraint=eastwest;" vertex="1" parent="2">
                    <mxGeometry y="98" width="140" height="8" as="geometry"/>
                </mxCell>
                <mxCell id="10" value="setIsCartOpen" style="html=1;align=left;spacingLeft=4;verticalAlign=top;strokeColor=none;fillColor=none;" vertex="1" parent="2">
                    <mxGeometry y="106" width="140" height="30" as="geometry"/>
                </mxCell>
                <mxCell id="12" value="cartItems" style="html=1;align=left;spacingLeft=4;verticalAlign=top;strokeColor=none;fillColor=none;" vertex="1" parent="2">
                    <mxGeometry y="136" width="140" height="30" as="geometry"/>
                </mxCell>
                <mxCell id="13" value="addiItemToCart" style="html=1;align=left;spacingLeft=4;verticalAlign=top;strokeColor=none;fillColor=none;" vertex="1" parent="2">
                    <mxGeometry y="166" width="140" height="30" as="geometry"/>
                </mxCell>
                <mxCell id="14" value="removeItemFromCart&lt;br&gt;" style="html=1;align=left;spacingLeft=4;verticalAlign=top;strokeColor=none;fillColor=none;" vertex="1" parent="2">
                    <mxGeometry y="196" width="140" height="30" as="geometry"/>
                </mxCell>
                <mxCell id="11" value="CartContext" style="fontStyle=1;" vertex="1" parent="1">
                    <mxGeometry x="160" y="80" width="140" height="30" as="geometry"/>
                </mxCell>
            </root>
        </mxGraphModel>
    </diagram>
</mxfile>